<?xml version="1.0"?>
<svg xmlns="http://www.w3.org/2000/svg" xmlns:xlink="http://www.w3.org/1999/xlink" version="1.1" id="Capa_1" x="0px" y="0px" viewBox="0 0 464 464" style="enable-background:new 0 0 464 464;" xml:space="preserve" width="512px" height="512px" class=""><g><path style="fill:#B9D1EB" d="M448,440V120c0-13.255-10.745-24-24-24H40c-13.255,0-24,10.745-24,24v320H448z" data-original="#CCCCCC" class="" data-old_color="#b9d1eb"/><path style="fill:#7EADE3" d="M464,416v24c0,13.255-10.745,24-24,24l0,0H24c-13.255,0-24-10.745-24-24l0,0v-24h160l16,16h112l16-16  H464z" data-original="#999999" class="" data-old_color="#7eade3"/><path style="fill:#1B63B5" d="M48,128h368v240H48V128z" data-original="#29ABE2" class="" data-old_color="#1b63b5"/><path style="fill:#F2F2F2;" d="M224,392h16v16h-16V392z" data-original="#F2F2F2"/><path style="fill:#F5F5F5" d="M144,328h-24c-13.255,0-24-10.745-24-24V24c0-13.255,10.745-24,24-24h224c13.255,0,24,10.745,24,24  v280c0,13.255-10.745,24-24,24H144z" data-original="#E6E6E6" class="" data-old_color="#f5f5f5"/><g>
	<path style="fill:#7EADE3" d="M128,248h208v16H128V248z" data-original="#999999" class="" data-old_color="#7eade3"/>
	<path style="fill:#7EADE3" d="M128,280h192v16H128V280z" data-original="#999999" class="" data-old_color="#7eade3"/>
	<path style="fill:#7EADE3" d="M176,216h160v16H176V216z" data-original="#999999" class="" data-old_color="#7eade3"/>
	<path style="fill:#7EADE3" d="M144,216h16v16h-16V216z" data-original="#999999" class="" data-old_color="#7eade3"/>
</g><g>
	<path style="fill:#2782EA" d="M195.2,174.4l-32-24c-3.535-2.651-4.251-7.665-1.6-11.2c0.455-0.606,0.994-1.145,1.6-1.6l32-24   l9.6,12.8L181.336,144l23.464,17.6L195.2,174.4z" data-original="#DA4836" class="" data-old_color="#2782ea"/>
	<path style="fill:#2782EA" d="M268.8,174.4l-9.6-12.8l23.464-17.6L259.2,126.4l9.6-12.8l32,24c3.535,2.651,4.251,7.665,1.6,11.2   c-0.455,0.606-0.994,1.145-1.6,1.6L268.8,174.4z" data-original="#DA4836" class="" data-old_color="#2782ea"/>
	<path style="fill:#2782EA" d="M208.574,181.025l32.007-79.994l14.862,5.947l-32.007,79.994L208.574,181.025z" data-original="#DA4836" class="" data-old_color="#2782ea"/>
</g><path style="fill:#1B63B5" d="M120,0h224c13.255,0,24,10.745,24,24v40l0,0H96l0,0V24C96,10.745,106.745,0,120,0z" data-original="#0071BC" class="" data-old_color="#93C23F"/><path style="fill:#2782EA" d="M120,24h16v16h-16V24z" data-original="#DA4836" class="" data-old_color="#2782ea"/><path style="fill:#93C23F" d="M152,24h16v16h-16V24z" data-original="#F8CF26" class="" data-old_color="#93c23f"/><path style="fill:#93C23F" d="M184,24h16v16h-16V24z" data-original="#3DBF50" class="active-path" data-old_color="#93c23f"/></g> </svg>
