<?xml version="1.0"?>
<svg xmlns="http://www.w3.org/2000/svg" xmlns:xlink="http://www.w3.org/1999/xlink" version="1.1" id="Capa_1" x="0px" y="0px" viewBox="0 0 53 53" style="enable-background:new 0 0 53 53;" xml:space="preserve" width="512px" height="512px" class=""><g><path style="fill:#4283CD" d="M50.455,8L50.455,8C49.724,3.538,39.281,0,26.5,0S3.276,3.538,2.545,8l0,0H2.5v0.5V20v0.5V21v11v0.5  V33v12h0.045c0.731,4.461,11.175,8,23.955,8s23.224-3.539,23.955-8H50.5V33v-0.5V32V21v-0.5V20V8.5V8H50.455z" data-original="#424A60" class="" data-old_color="#424A60"/><g>
	<path style="fill:#4283CD" d="M26.5,41c-13.255,0-24-3.806-24-8.5V45h0.045c0.731,4.461,11.175,8,23.955,8s23.224-3.539,23.955-8   H50.5V32.5C50.5,37.194,39.755,41,26.5,41z" data-original="#424A60" class="" data-old_color="#424A60"/>
	<path style="fill:#4283CD" d="M2.5,32v0.5c0-0.168,0.018-0.334,0.045-0.5H2.5z" data-original="#424A60" class="" data-old_color="#424A60"/>
	<path style="fill:#4283CD" d="M50.455,32c0.027,0.166,0.045,0.332,0.045,0.5V32H50.455z" data-original="#424A60" class="" data-old_color="#424A60"/>
</g><g>
	<path style="fill:#6094CF" d="M26.5,29c-13.255,0-24-3.806-24-8.5V33h0.045c0.731,4.461,11.175,8,23.955,8s23.224-3.539,23.955-8   H50.5V20.5C50.5,25.194,39.755,29,26.5,29z" data-original="#556080" class="" data-old_color="#578CC8"/>
	<path style="fill:#6094CF" d="M2.5,20v0.5c0-0.168,0.018-0.334,0.045-0.5H2.5z" data-original="#556080" class="" data-old_color="#578CC8"/>
	<path style="fill:#6094CF" d="M50.455,20c0.027,0.166,0.045,0.332,0.045,0.5V20H50.455z" data-original="#556080" class="" data-old_color="#578CC8"/>
</g><ellipse style="fill:#8DB1DB" cx="26.5" cy="8.5" rx="24" ry="8.5" data-original="#7FABDA" class="active-path" data-old_color="#97B9E0"/><g>
	<path style="fill:#729ECF" d="M26.5,17c-13.255,0-24-3.806-24-8.5V21h0.045c0.731,4.461,11.175,8,23.955,8s23.224-3.539,23.955-8   H50.5V8.5C50.5,13.194,39.755,17,26.5,17z" data-original="#7383BF" class="" data-old_color="#6094CF"/>
	<path style="fill:#729ECF" d="M2.5,8v0.5c0-0.168,0.018-0.334,0.045-0.5H2.5z" data-original="#7383BF" class="" data-old_color="#6094CF"/>
	<path style="fill:#729ECF" d="M50.455,8C50.482,8.166,50.5,8.332,50.5,8.5V8H50.455z" data-original="#7383BF" class="" data-old_color="#6094CF"/>
</g></g> </svg>
